<svg version="1.1" xmlns="http://www.w3.org/2000/svg" xmlns:xlink="http://www.w3.org/1999/xlink" width="40.0073" height="37.65393" viewBox="0,0,40.0073,37.65393"><defs><linearGradient x1="240" y1="161.17304" x2="240" y2="198.82696" gradientUnits="userSpaceOnUse" id="color-1"><stop offset="0" stop-color="#000000"/><stop offset="1" stop-color="#505050"/></linearGradient></defs><g transform="translate(-219.99635,-161.17304)"><g data-paper-data="{&quot;isPaintingLayer&quot;:true}" fill-rule="nonzero" stroke="none" stroke-linecap="butt" stroke-linejoin="miter" stroke-miterlimit="10" stroke-dasharray="" stroke-dashoffset="0" style="mix-blend-mode: normal"><path d="M260.00365,180c0,10.39785 -8.95594,18.82696 -20.00365,18.82696c-11.04771,0 -20.00365,-8.42912 -20.00365,-18.82696c0,-10.39785 8.95594,-18.82696 20.00365,-18.82696c11.04771,0 20.00365,8.42912 20.00365,18.82696z" fill="url(#color-1)" stroke-width="0"/><path d="M243.37937,194.44686c0,1.77184 -1.21193,3.20819 -2.70691,3.20819c-1.49499,0 -2.70691,-1.43636 -2.70691,-3.20819c0,-1.77184 1.21193,-3.20819 2.70691,-3.20819c1.49499,0 2.70691,1.43636 2.70691,3.20819z" fill="#ffffff" stroke-width="0"/><path d="M228.54787,168.98182c0.54135,-0.94736 1.49134,-1.7863 2.66329,-2.49475c2.97542,-1.79866 7.38152,-2.75623 10.16308,-2.51165c1.25507,0.11036 4.79865,0.33124 5.29544,1.95179c0.67354,2.1971 2.47114,5.57821 1.30333,7.91383c-0.71041,1.42082 -4.42743,2.44299 -4.60005,3.10739c-0.60107,2.31348 3.09158,10.07308 -1.79821,10.07308c-0.83982,0 -1.59366,-0.65616 -2.1875,-1.25c-0.68821,-0.68821 -1.14671,-11.26492 -0.51035,-11.8711c1.41689,-1.34968 2.69867,-1.23368 4.30401,-2.20062c0.1022,-0.06156 -0.68309,-2.4742 -0.91155,-2.55599c-2.22669,-0.79722 -6.9429,0.88114 -8.92709,1.70845c-0.65676,0.27384 -3.00461,1.26173 -3.56325,0.28411z" fill="#ffffff" stroke-width="0.5"/></g></g></svg>