<svg version="1.1" xmlns="http://www.w3.org/2000/svg" xmlns:xlink="http://www.w3.org/1999/xlink" width="76.50666" height="10.36196" viewBox="0,0,76.50666,10.36196"><g transform="translate(-201.74667,-174.81902)"><g data-paper-data="{&quot;isPaintingLayer&quot;:true}" fill-rule="nonzero" stroke-width="2" stroke-linecap="butt" stroke-linejoin="miter" stroke-miterlimit="10" stroke-dasharray="" stroke-dashoffset="0" style="mix-blend-mode: normal"><g><path d="M231.65951,180.5687c0,0.92838 -6.47236,1.68098 -14.45642,1.68098c-7.98406,0 -14.45642,-0.7526 -14.45642,-1.68098c0,-0.92838 6.47236,-1.68098 14.45642,-1.68098c7.98406,0 14.45642,0.7526 14.45642,1.68098z" fill="#ff8c00" stroke="#a35e00"/><path d="M252.79691,177.5c0,0.92838 -6.47236,1.68098 -14.45642,1.68098c-7.98406,0 -14.45642,-0.7526 -14.45642,-1.68098c0,-0.92838 6.47236,-1.68098 14.45642,-1.68098c7.98406,0 14.45642,0.7526 14.45642,1.68098z" fill="#ff8c00" stroke="#a35e00"/><path d="M254.09876,182.5c0,0.92838 -6.47236,1.68098 -14.45642,1.68098c-7.98406,0 -14.45642,-0.7526 -14.45642,-1.68098c0,-0.92838 6.47236,-1.68098 14.45642,-1.68098c7.98406,0 14.45642,0.7526 14.45642,1.68098z" fill="#ff8c00" stroke="#a35e00"/><path d="M277.25333,180.10369c0,0.92838 -6.47236,1.68098 -14.45642,1.68098c-7.98406,0 -14.45642,-0.7526 -14.45642,-1.68098c0,-0.92838 6.47236,-1.68098 14.45642,-1.68098c7.98406,0 14.45642,0.7526 14.45642,1.68098z" fill="#ff8c00" stroke="#a35e00"/></g></g></g></svg>