<svg version="1.1" xmlns="http://www.w3.org/2000/svg" xmlns:xlink="http://www.w3.org/1999/xlink" width="27.18189" height="36.74723" viewBox="0,0,27.18189,36.74723"><g transform="translate(-226.40906,-167.40124)"><g data-paper-data="{&quot;isPaintingLayer&quot;:true}" fill-rule="nonzero" stroke-width="2" stroke-linejoin="miter" stroke-miterlimit="10" stroke-dasharray="" stroke-dashoffset="0" style="mix-blend-mode: normal"><g fill="#5b0070" stroke="#46008c" stroke-linecap="butt"><path d="M241.20322,175.3362c0,3.62068 -3.07832,6.55582 -6.87562,6.55582c-3.7973,0 -6.87562,-2.93514 -6.87562,-6.55582c0,-3.62068 3.07832,-6.55582 6.87562,-6.55582c3.7973,0 6.87562,2.93514 6.87562,6.55582z"/><path d="M252.59094,174.95706c0,3.62068 -3.07832,6.55582 -6.87562,6.55582c-3.7973,0 -6.87562,-2.93514 -6.87562,-6.55582c0,-3.62068 3.07832,-6.55582 6.87562,-6.55582c3.7973,0 6.87562,2.93514 6.87562,6.55582z"/><path d="M245.67239,178.48712c3.7973,0 6.87562,2.93514 6.87562,6.55582c0,3.62068 -3.07832,6.55582 -6.87562,6.55582c-3.7973,0 -6.87562,-2.93514 -6.87562,-6.55582c0,-3.62068 3.07832,-6.55582 6.87562,-6.55582z" data-paper-data="{&quot;index&quot;:null}"/><path d="M234.28467,178.10798c3.7973,0 6.87562,2.93514 6.87562,6.55582c0,3.62068 -3.07832,6.55582 -6.87562,6.55582c-3.7973,0 -6.87562,-2.93514 -6.87562,-6.55582c0,-3.62068 3.07832,-6.55582 6.87562,-6.55582z" data-paper-data="{&quot;index&quot;:null}"/></g><path d="M240.11223,188.35586l0.3362,14.79261" fill="none" stroke="#46008c" stroke-linecap="round"/></g></g></svg>