<svg version="1.1" xmlns="http://www.w3.org/2000/svg" xmlns:xlink="http://www.w3.org/1999/xlink" width="67.91235" height="9.75534" viewBox="0,0,67.91235,9.75534"><g transform="translate(-206.01935,-175.12173)"><g data-paper-data="{&quot;isPaintingLayer&quot;:true}" fill-rule="nonzero" stroke-width="2" stroke-linecap="butt" stroke-linejoin="miter" stroke-miterlimit="10" stroke-dasharray="" stroke-dashoffset="0" style="mix-blend-mode: normal"><g><path d="M239.35504,180.08597c0,0.58128 0.37045,2.06066 -0.89184,2.53682c-2.74635,1.03596 -9.15851,0.96103 -15.27601,0.96103c-7.40807,0 -13.80792,0.05822 -15.72049,-1.34685c-0.39273,-0.28851 -0.44735,-1.83653 -0.44735,-2.151c0,-0.50421 -0.08179,-2.22603 0.88526,-2.65472c2.57339,-1.14076 8.7923,-1.30952 15.28258,-1.30952c6.42824,0 12.60209,0.30917 15.20795,1.43236c1.01386,0.437 0.95991,2.01484 0.95991,2.53188z" fill="#6c7000" stroke="#006617"/><path d="M272.93169,180.37922c0,0.58128 0.37045,2.06066 -0.89184,2.53681c-2.74635,1.03596 -9.15852,0.96104 -15.27602,0.96104c-7.40808,0 -13.80792,0.05822 -15.7205,-1.34685c-0.39273,-0.28851 -0.44735,-1.83653 -0.44735,-2.151c0,-0.50421 -0.08179,-2.22603 0.88526,-2.65472c2.57339,-1.14076 8.7923,-1.30951 15.28259,-1.30951c6.42823,0 12.60209,0.30917 15.20795,1.43236c1.01386,0.437 0.95991,2.01483 0.95991,2.53187z" fill="#6c7000" stroke="#006617"/></g></g></g></svg>