<svg version="1.1" xmlns="http://www.w3.org/2000/svg" xmlns:xlink="http://www.w3.org/1999/xlink" width="29.56806" height="26.2061" viewBox="0,0,29.56806,26.2061"><g transform="translate(-225.21597,-166.89695)"><g data-paper-data="{&quot;isPaintingLayer&quot;:true}" fill-rule="nonzero" stroke-width="2" stroke-linecap="butt" stroke-linejoin="miter" stroke-miterlimit="10" stroke-dasharray="" stroke-dashoffset="0" style="mix-blend-mode: normal"><path d="M253.78404,180c0,6.68433 -6.17132,12.10305 -13.78403,12.10305c-7.61271,0 -13.78403,-5.41872 -13.78403,-12.10305c0,-6.68433 6.17132,-12.10305 13.78403,-12.10305c7.61271,0 13.78403,5.41872 13.78403,12.10305z" fill="#544c4c" stroke="#720000"/><path d="M239.9219,175.49018c-0.82327,0 -1.49065,1.12594 -1.49065,-0.79502c0,-1.92095 0.56801,-5.26698 1.39128,-5.26698c0.82327,0 1.59003,3.34602 1.59003,5.26698c0,1.92095 -0.66739,0.79502 -1.49065,0.79502z" data-paper-data="{&quot;index&quot;:null}" fill="#5b0070" stroke="#46008c"/><path d="M234.4038,179.07892c-0.6111,0.55165 -0.35204,1.83463 -1.63922,0.40872c-1.28719,-1.42591 -3.10765,-4.29024 -2.49654,-4.84189c0.6111,-0.55165 3.42236,1.41828 4.70954,2.84419c1.28719,1.42591 0.03733,1.03733 -0.57378,1.58898z" data-paper-data="{&quot;index&quot;:null}" fill="#5b0070" stroke="#46008c"/><path d="M245.12009,178.11939c1.28718,-1.42591 4.09843,-3.39584 4.70954,-2.84419c0.61111,0.55165 -1.20936,3.41599 -2.49654,4.84189c-1.28718,1.42591 -1.02812,0.14293 -1.63922,-0.40872c-0.61111,-0.55165 -1.86096,-0.16307 -0.57378,-1.58898z" data-paper-data="{&quot;index&quot;:null}" fill="#5b0070" stroke="#46008c"/><path d="M241.95277,184.60125c0.61111,-0.55165 0.35204,-1.83463 1.63923,-0.40872c1.28718,1.42591 3.10765,4.29024 2.49654,4.84189c-0.61111,0.55165 -3.42236,-1.41828 -4.70954,-2.84419c-1.28718,-1.42591 -0.03733,-1.03733 0.57377,-1.58898z" data-paper-data="{&quot;index&quot;:null}" fill="#5b0070" stroke="#46008c"/><path d="M236.86594,186.1473c-1.28718,1.42591 -4.09843,3.39584 -4.70954,2.84419c-0.61111,-0.55165 1.20935,-3.41599 2.49654,-4.84189c1.28718,-1.42591 1.02812,-0.14293 1.63923,0.40872c0.61111,0.55165 1.86096,0.16307 0.57378,1.58898z" data-paper-data="{&quot;index&quot;:null}" fill="#5b0070" stroke="#46008c"/></g></g></svg>