<svg version="1.1" xmlns="http://www.w3.org/2000/svg" xmlns:xlink="http://www.w3.org/1999/xlink" width="85.48907" height="34.61099" viewBox="0,0,85.48907,34.61099"><g transform="translate(-197.25547,-162.6945)"><g data-paper-data="{&quot;isPaintingLayer&quot;:true}" fill-rule="nonzero" stroke="#a30087" stroke-width="2" stroke-linejoin="miter" stroke-miterlimit="10" stroke-dasharray="" stroke-dashoffset="0" style="mix-blend-mode: normal"><g><path d="M281.66282,180.92836c0,0.93727 0.59734,3.32267 -1.43802,4.09044c-4.42831,1.67041 -14.7675,1.54961 -24.63156,1.54961c-11.94503,0 -22.26436,0.09387 -25.34826,-2.17171c-0.63325,-0.46521 -0.72132,-2.96128 -0.72132,-3.46835c0,-0.81301 -0.13188,-3.58932 1.42742,-4.28055c4.14942,-1.83941 14.17701,-2.11151 24.64216,-2.11151c10.3651,0 20.32003,0.49852 24.52181,2.30958c1.63478,0.70463 1.54779,3.24879 1.54779,4.08248z" fill="#70004f" stroke-linecap="butt"/><path d="M229.18548,179.49571l-30.93001,0.67239" fill="none" stroke-linecap="round"/><path d="M232.54744,167.05646l10.08587,8.0687" fill="none" stroke-linecap="round"/><path d="M249.02103,164.3669l7.06011,9.07729" fill="none" stroke-linecap="round"/><path d="M264.14984,163.6945l3.36196,10.08587" fill="none" stroke-linecap="round"/><path d="M268.85658,187.22821l-1.34478,9.07729" fill="none" stroke-linecap="round"/><path d="M258.43451,185.88343l-6.38772,9.41348" fill="none" stroke-linecap="round"/><path d="M242.63331,185.88343l-7.39631,6.72392" fill="none" stroke-linecap="round"/></g></g></g></svg>