<svg version="1.1" xmlns="http://www.w3.org/2000/svg" xmlns:xlink="http://www.w3.org/1999/xlink" width="51.48613" height="43.06599" viewBox="0,0,51.48613,43.06599"><g transform="translate(-210.02181,-159.83684)"><g data-paper-data="{&quot;isPaintingLayer&quot;:true}" fill-rule="nonzero" stroke-linejoin="miter" stroke-miterlimit="10" stroke-dasharray="" stroke-dashoffset="0" style="mix-blend-mode: normal"><path d="M257.46172,192.71924c1.76891,1.91787 2.30974,4.29638 1.20799,5.31256c-1.10175,1.01618 -3.42887,0.28522 -5.19778,-1.63265c-1.76891,-1.91787 -2.30974,-4.29637 -1.20799,-5.31255c1.10175,-1.01618 3.42888,-0.28522 5.19778,1.63264z" data-paper-data="{&quot;index&quot;:null}" fill="#b4b4b4" stroke="#000000" stroke-width="2" stroke-linecap="butt"/><path d="M226.73209,191.51432c1.10175,1.01618 0.56091,3.39469 -1.20799,5.31256c-1.7689,1.91786 -4.09603,2.64883 -5.19778,1.63265c-1.10175,-1.01618 -0.56092,-3.39469 1.20798,-5.31256c1.7689,-1.91786 4.09603,-2.64883 5.19779,-1.63265z" fill="#b4b4b4" stroke="#000000" stroke-width="2" stroke-linecap="butt"/><g><path d="M260.50794,180c0,10.58352 -9.18171,19.16316 -20.50794,19.16316c-11.32622,0 -20.50794,-8.57964 -20.50794,-19.16316c0,-10.58352 9.18172,-19.16316 20.50794,-19.16316c11.32622,0 20.50794,8.57964 20.50794,19.16316z" fill="#b4b4b4" stroke="#000000" stroke-width="2" stroke-linecap="butt"/><path d="M246.72391,190.92636c0,1.76392 -2.78462,3.19386 -6.21962,3.19386c-3.435,0 -6.21963,-1.42994 -6.21963,-3.19386c0,-1.76392 2.78463,-3.19386 6.21963,-3.19386c3.435,0 6.21962,1.42994 6.21962,3.19386z" fill="#000000" stroke="#000000" stroke-width="2" stroke-linecap="butt"/><path d="M233.61227,190.08587l0.67239,-9.41348" fill="none" stroke="#000000" stroke-width="1" stroke-linecap="round"/><path d="M246.72391,189.74968l-1.68098,-9.74968" fill="none" stroke="#000000" stroke-width="1" stroke-linecap="round"/><path d="M240.24199,195.09912l0.66076,-2.33005l0.27822,1.14764l0.13911,1.18241z" fill="#ffffff" stroke="none" stroke-width="0" stroke-linecap="butt"/><path d="M241.34201,195.09239l0.66076,-2.33005l0.27822,1.14764l0.13911,1.18241z" fill="#ffffff" stroke="none" stroke-width="0" stroke-linecap="butt"/><path d="M239.30272,195.15457l0.66076,-2.33005l0.27821,1.14764l0.13911,1.18241z" fill="#ffffff" stroke="none" stroke-width="0" stroke-linecap="butt"/><path d="M244.43258,194.84663l0.06616,-2.42102l0.55246,1.04368l0.42621,1.11166z" fill="#ffffff" stroke="none" stroke-width="0" stroke-linecap="butt"/><path d="M242.51665,195.16226l0.06616,-2.42102l0.55246,1.04368l0.42621,1.11166z" fill="#ffffff" stroke="none" stroke-width="0" stroke-linecap="butt"/><path d="M243.4582,195.01075l0.06615,-2.42102l0.55247,1.04368l0.42621,1.11166z" fill="#ffffff" stroke="none" stroke-width="0" stroke-linecap="butt"/><path d="M236.27632,194.66615l0.42621,-1.11166l0.55247,-1.04368l0.06616,2.42102z" data-paper-data="{&quot;index&quot;:null}" fill="#ffffff" stroke="none" stroke-width="0" stroke-linecap="butt"/><path d="M238.19226,194.98178l0.42621,-1.11166l0.55246,-1.04368l0.06616,2.42102z" data-paper-data="{&quot;index&quot;:null}" fill="#ffffff" stroke="none" stroke-width="0" stroke-linecap="butt"/><path d="M237.25071,194.83028l0.42621,-1.11166l0.55246,-1.04368l0.06616,2.42102z" data-paper-data="{&quot;index&quot;:null}" fill="#ffffff" stroke="none" stroke-width="0" stroke-linecap="butt"/><path d="M233.56177,192.93358l0.80522,-0.87696l0.89763,-0.76731l-0.82898,2.27564z" data-paper-data="{&quot;index&quot;:null}" fill="#ffffff" stroke="none" stroke-width="0" stroke-linecap="butt"/><path d="M235.22729,193.93181l0.80523,-0.87696l0.89762,-0.76731l-0.82898,2.27564z" data-paper-data="{&quot;index&quot;:null}" fill="#ffffff" stroke="none" stroke-width="0" stroke-linecap="butt"/><path d="M234.40747,193.44461l0.80522,-0.87696l0.89762,-0.76731l-0.82898,2.27564z" data-paper-data="{&quot;index&quot;:null}" fill="#ffffff" stroke="none" stroke-width="0" stroke-linecap="butt"/><path d="M247.15426,193.42262l-0.82898,-2.27564l0.89763,0.76731l0.80522,0.87696z" data-paper-data="{&quot;index&quot;:null}" fill="#ffffff" stroke="none" stroke-width="0" stroke-linecap="butt"/><path d="M245.48873,194.42084l-0.82897,-2.27564l0.89762,0.76731l0.80523,0.87697z" data-paper-data="{&quot;index&quot;:null}" fill="#ffffff" stroke="none" stroke-width="0" stroke-linecap="butt"/><path d="M246.30855,193.93364l-0.82898,-2.27564l0.89762,0.76731l0.80522,0.87696z" data-paper-data="{&quot;index&quot;:null}" fill="#ffffff" stroke="none" stroke-width="0" stroke-linecap="butt"/><path d="M247.88685,190.2592l-2.30228,-0.75187l1.1577,-0.23288l1.18696,-0.09251z" data-paper-data="{&quot;index&quot;:null}" fill="#ffffff" stroke="none" stroke-width="0" stroke-linecap="butt"/><path d="M247.64463,192.18579l-2.30227,-0.75187l1.1577,-0.23288l1.18697,-0.09251z" data-paper-data="{&quot;index&quot;:null}" fill="#ffffff" stroke="none" stroke-width="0" stroke-linecap="butt"/><path d="M247.76712,191.24003l-2.30227,-0.75187l1.15769,-0.23288l1.18697,-0.09251z" data-paper-data="{&quot;index&quot;:null}" fill="#ffffff" stroke="none" stroke-width="0" stroke-linecap="butt"/><path d="M233.18608,189.40367l1.18696,0.0925l1.15769,0.23288l-2.30228,0.75187z" data-paper-data="{&quot;index&quot;:null}" fill="#ffffff" stroke="none" stroke-width="0" stroke-linecap="butt"/><path d="M233.42828,191.33026l1.18697,0.0925l1.15769,0.23288l-2.30227,0.75187z" data-paper-data="{&quot;index&quot;:null}" fill="#ffffff" stroke="none" stroke-width="0" stroke-linecap="butt"/><path d="M233.30579,190.3845l1.18697,0.09251l1.15769,0.23287l-2.30227,0.75187z" data-paper-data="{&quot;index&quot;:null}" fill="#ffffff" stroke="none" stroke-width="0" stroke-linecap="butt"/><path d="M236.10321,187.49016l0.57864,1.04048l0.44548,1.09364l-1.89864,-1.50365z" data-paper-data="{&quot;index&quot;:null}" fill="#ffffff" stroke="none" stroke-width="0" stroke-linecap="butt"/><path d="M234.63113,188.75641l0.57865,1.04049l0.44548,1.09364l-1.89864,-1.50364z" data-paper-data="{&quot;index&quot;:null}" fill="#ffffff" stroke="none" stroke-width="0" stroke-linecap="butt"/><path d="M235.35179,188.13182l0.57864,1.04049l0.44548,1.09364l-1.89863,-1.50365z" data-paper-data="{&quot;index&quot;:null}" fill="#ffffff" stroke="none" stroke-width="0" stroke-linecap="butt"/><path d="M245.34252,187.65974l-1.89863,1.50365l0.44547,-1.09364l0.57865,-1.04048z" data-paper-data="{&quot;index&quot;:null}" fill="#ffffff" stroke="none" stroke-width="0" stroke-linecap="butt"/><path d="M246.81459,188.92602l-1.89864,1.50364l0.44547,-1.09364l0.57865,-1.04049z" data-paper-data="{&quot;index&quot;:null}" fill="#ffffff" stroke="none" stroke-width="0" stroke-linecap="butt"/><path d="M246.09393,188.30141l-1.89863,1.50365l0.44548,-1.09364l0.57864,-1.04048z" data-paper-data="{&quot;index&quot;:null}" fill="#ffffff" stroke="none" stroke-width="0" stroke-linecap="butt"/><path d="M242.63205,186.82454l-0.99057,2.2101l-0.10943,-1.1758l0.03323,-1.1901z" data-paper-data="{&quot;index&quot;:null}" fill="#ffffff" stroke="none" stroke-width="0" stroke-linecap="butt"/><path d="M244.52234,187.26866l-0.99057,2.21009l-0.10943,-1.1758l0.03323,-1.19011z" data-paper-data="{&quot;index&quot;:null}" fill="#ffffff" stroke="none" stroke-width="0" stroke-linecap="butt"/><path d="M243.59477,187.04708l-0.99056,2.21009l-0.10944,-1.17581l0.03323,-1.19009z" data-paper-data="{&quot;index&quot;:null}" fill="#ffffff" stroke="none" stroke-width="0" stroke-linecap="butt"/><path d="M239.01405,186.63501l0.21762,1.1705l0.07447,1.17853l-1.32173,-2.02949z" data-paper-data="{&quot;index&quot;:null}" fill="#ffffff" stroke="none" stroke-width="0" stroke-linecap="butt"/><path d="M237.21565,187.36723l0.21762,1.17051l0.07446,1.17854l-1.32172,-2.02948z" data-paper-data="{&quot;index&quot;:null}" fill="#ffffff" stroke="none" stroke-width="0" stroke-linecap="butt"/><path d="M238.09756,187.00432l0.21762,1.1705l0.07446,1.17855l-1.32171,-2.02949z" data-paper-data="{&quot;index&quot;:null}" fill="#ffffff" stroke="none" stroke-width="0" stroke-linecap="butt"/><path d="M242.07341,186.73679l-0.2203,1.17l-0.35667,1.12573l-0.49855,-2.37007z" data-paper-data="{&quot;index&quot;:null}" fill="#ffffff" stroke="none" stroke-width="0" stroke-linecap="butt"/><path d="M240.13193,186.76926l-0.2203,1.17001l-0.35668,1.12573l-0.49854,-2.37006z" data-paper-data="{&quot;index&quot;:null}" fill="#ffffff" stroke="none" stroke-width="0" stroke-linecap="butt"/><path d="M241.08539,186.74975l-0.2203,1.17l-0.35669,1.12574l-0.49853,-2.37006z" data-paper-data="{&quot;index&quot;:null}" fill="#ffffff" stroke="none" stroke-width="0" stroke-linecap="butt"/><path d="M231.75268,176.64544c0,0 -4.88101,-0.29193 -6.74798,0.28252c-1.14757,0.3531 -3.41115,4.58313 -4.10622,5.3111c-0.25181,0.26372 0.40081,-2.37718 0.40081,-2.37718" fill="none" stroke="#000000" stroke-width="0.5" stroke-linecap="round"/><path d="M234.165,179.3593c0,1.3878 -1.44004,2.51284 -3.21643,2.51284c-1.77639,0 -3.21644,-1.12504 -3.21644,-2.51284c0,-1.3878 1.44005,-2.51283 3.21644,-2.51283c1.77639,0 3.21643,1.12503 3.21643,2.51283z" fill="#000000" stroke="#000000" stroke-width="0.5" stroke-linecap="butt"/><path d="M245.02046,178.45468c0,1.11024 1.35004,2.01027 3.01541,2.01027c1.66536,0 3.01541,-0.90003 3.01541,-2.01027c0,-1.11024 -1.35005,-2.01027 -3.01541,-2.01027c-1.66536,0 -3.01541,0.90003 -3.01541,2.01027z" fill="#000000" stroke="#000000" stroke-width="0.5" stroke-linecap="butt"/><path d="M248.55672,176.61976c0,0 4.88101,-0.29193 6.74799,0.28253c1.14757,0.3531 3.41115,4.58313 4.10623,5.31109c0.25181,0.26372 -0.40081,-2.37718 -0.40081,-2.37718" data-paper-data="{&quot;index&quot;:null}" fill="none" stroke="#000000" stroke-width="0.5" stroke-linecap="round"/><path d="M224.51571,172.22285h7.23697l3.81951,3.0154l7.438,0.20103l3.21643,-2.61335l8.84519,-0.60308" fill="none" stroke="#000000" stroke-width="0.5" stroke-linecap="round"/><path d="M228.13419,166.59409l8.2421,5.42773l7.23697,0.20103l6.63389,-5.82979" fill="none" stroke="#000000" stroke-width="0.5" stroke-linecap="round"/><path d="M233.76295,164.18176l2.41233,3.61849l7.03594,0.20103l2.61336,-3.61849" fill="none" stroke="#000000" stroke-width="0.5" stroke-linecap="round"/></g><path d="M210.85079,202.90283l-0.82898,-2.27563l0.89762,0.76731l0.80522,0.87696z" data-paper-data="{&quot;index&quot;:null}" fill="#ffffff" stroke="none" stroke-width="0" stroke-linecap="butt"/></g></g></svg>