<svg version="1.1" xmlns="http://www.w3.org/2000/svg" xmlns:xlink="http://www.w3.org/1999/xlink" width="33.68791" height="29.63244" viewBox="0,0,33.68791,29.63244"><g transform="translate(-224.01264,-165.55217)"><g data-paper-data="{&quot;isPaintingLayer&quot;:true}" fill-rule="nonzero" stroke-linecap="butt" stroke-linejoin="miter" stroke-miterlimit="10" stroke-dasharray="" stroke-dashoffset="0" style="mix-blend-mode: normal"><path d="M254.96072,180c0,7.42703 -6.69814,13.44783 -14.96071,13.44783c-8.26257,0 -14.96071,-6.0208 -14.96071,-13.44783c0,-7.42703 6.69814,-13.44783 14.96071,-13.44783c8.26257,0 14.96071,6.0208 14.96071,13.44783z" fill="#00700b" stroke="#004a02" stroke-width="2"/><path d="M243.69816,180c0,1.85676 -1.65572,3.36196 -3.69816,3.36196c-2.04244,0 -3.69816,-1.5052 -3.69816,-3.36196c0,-1.85676 1.65572,-3.36196 3.69816,-3.36196c2.04244,0 3.69816,1.5052 3.69816,3.36196z" fill="none" stroke="#000000" stroke-width="3"/><path d="M246.45701,167.13259c0,5.75595 -3.31144,10.42207 -7.39631,10.42207c-4.08487,0 -7.39631,-4.66612 -7.39631,-10.42207c0,-5.75595 3.93648,7.39631 8.02135,7.39631c4.08487,0 6.77127,-13.15226 6.77127,-7.39631z" fill="#000000" stroke="none" stroke-width="0"/><path d="M245.82226,193.93787c-3.79328,-4.3292 -4.37771,-10.02102 -1.30538,-12.71302c3.07233,-2.692 8.63802,-1.3648 12.4313,2.96441c3.79328,4.3292 -7.83503,-2.96874 -10.90737,-0.27674c-3.07233,2.692 3.57473,14.35456 -0.21855,10.02535z" fill="#000000" stroke="none" stroke-width="0"/><path d="M235.67238,184.20578c-3.07234,-2.692 -14.70065,4.60594 -10.90737,0.27674c3.79328,-4.3292 9.35896,-5.65641 12.4313,-2.96441c3.07234,2.692 2.4879,8.38383 -1.30538,12.71302c-3.79328,4.3292 2.85378,-7.33335 -0.21855,-10.02535z" data-paper-data="{&quot;index&quot;:null}" fill="#000000" stroke="none" stroke-width="0"/><path d="M249.6152,180.00001c0,4.82758 -4.30487,8.74108 -9.6152,8.74108c-5.31033,0 -9.6152,-3.91351 -9.6152,-8.74108c0,-4.82758 4.30487,-8.7411 9.6152,-8.7411c5.31033,0 9.6152,3.91352 9.6152,8.7411z" fill="none" stroke="#000000" stroke-width="3"/></g></g></svg>